<?xml version="1.0" encoding="UTF-8" standalone="no"?>
<!-- Generator: Adobe Illustrator 19.1.0, SVG Export Plug-In . SVG Version: 6.00 Build 0)  -->

<svg
   version="1.1"
   id="Layer_1"
   x="0px"
   y="0px"
   viewBox="0 0 250 250"
   style="enable-background:new 0 0 250 250;"
   xml:space="preserve"
   sodipodi:docname="angular.svg"
   inkscape:version="1.2.2 (732a01da63, 2022-12-09)"
   xmlns:inkscape="http://www.inkscape.org/namespaces/inkscape"
   xmlns:sodipodi="http://sodipodi.sourceforge.net/DTD/sodipodi-0.dtd"
   xmlns="http://www.w3.org/2000/svg"
   xmlns:svg="http://www.w3.org/2000/svg"><defs
   id="defs30" /><sodipodi:namedview
   id="namedview28"
   pagecolor="#505050"
   bordercolor="#eeeeee"
   borderopacity="1"
   inkscape:showpageshadow="0"
   inkscape:pageopacity="0"
   inkscape:pagecheckerboard="0"
   inkscape:deskcolor="#505050"
   showgrid="false"
   inkscape:zoom="2.1"
   inkscape:cx="111.90476"
   inkscape:cy="96.666667"
   inkscape:window-width="1366"
   inkscape:window-height="705"
   inkscape:window-x="-8"
   inkscape:window-y="-8"
   inkscape:window-maximized="1"
   inkscape:current-layer="Layer_1" />
<style
   type="text/css"
   id="style17">
	.st0{fill:#DD0031;}
	.st1{fill:#C3002F;}
	.st2{fill:#FFFFFF;}
</style>
<g
   id="g25"
   transform="translate(0,-5)">
	<polygon
   class="st0"
   points="125,30 125,30 31.9,63.2 46.1,186.3 125,230 125,230 125,230 203.9,186.3 218.1,63.2 125,30 "
   id="polygon19" />
	<polygon
   class="st1"
   points="125,52.2 125,52.1 125,153.4 125,153.4 125,230 125,230 203.9,186.3 218.1,63.2 125,30 "
   id="polygon21" />
	<path
   class="st2"
   d="M 125,52.1 66.8,182.6 v 0 h 21.7 v 0 l 11.7,-29.2 h 49.4 l 11.7,29.2 v 0 H 183 v 0 L 125,52.1 v 0 0 0 z m 17,83.3 h -34 l 17,-40.9 z"
   id="path23" />
</g>
</svg>
